<svg xmlns="http://www.w3.org/2000/svg" viewBox="0 0 1716.11 376.22"><g id="Layer_2" data-name="Layer 2"><g id="Main_Artboard" data-name="Main Artboard"><g id="MLSC_text_bold_left" data-name="MLSC text bold left"><path d="M773.7,101.75V280.53c0,9.09-7.88,16.67-17,16.67a16.62,16.62,0,0,1-16.66-16.67V153l-43.64,60.6a16.51,16.51,0,0,1-13.63,7h-.61a17.09,17.09,0,0,1-13.94-7L624.92,153V280.53a16.82,16.82,0,0,1-33.63,0V101.75A16.81,16.81,0,0,1,608,85.09h.91a16.39,16.39,0,0,1,13.34,7l60.3,83.63,60.29-83.63a16.54,16.54,0,0,1,13.64-7h.3C765.82,85.39,773.7,92.66,773.7,101.75Z" style="fill:#3498db"/><path d="M953.08,280.53V101.75a16.61,16.61,0,0,1,16.67-16.66,16.88,16.88,0,0,1,17,16.66V263.56h82.11a16.82,16.82,0,0,1,0,33.64H969.75A16.62,16.62,0,0,1,953.08,280.53Z" style="fill:#3498db"/><path d="M1223.06,244.47a15.81,15.81,0,0,1,22.12-2.12c13.33,10.91,36.36,23.64,57.88,23.33,15.15,0,28.78-4.54,37.87-11.21s13-14.24,13-21.82a17.27,17.27,0,0,0-2.73-9.69,28.44,28.44,0,0,0-9.09-9.09c-8.78-5.76-23.63-10.91-41.51-14.24h-.6c-14.25-2.73-27.58-6.37-39.09-11.82s-21.52-13-28.18-23.64a46.44,46.44,0,0,1-7-24.84c0-18.18,10.3-33.94,24.24-44.24,14.24-10.3,32.72-16.06,52.42-16.06,29.09,0,50.6,14.24,66.06,24.24,7,4.85,9.09,14.54,4.24,21.51a15.3,15.3,0,0,1-21.52,4.55c-15.45-10.3-30.3-19.39-48.78-19.39-13.64,0-25.76,4.24-33.94,10.3S1257,133,1257,139.33a14.67,14.67,0,0,0,2.12,8.48,29.19,29.19,0,0,0,8.18,7.88c7.88,5.45,21.51,10.3,37.88,13.33h.6c15.46,3,29.7,7,41.82,12.73,12.42,6.06,23.33,13.94,30.3,25.15a49.16,49.16,0,0,1,7.27,25.75c0,19.4-10.91,36.06-26.06,47-14.84,10.91-34.54,17.27-56,17.27-32.73-.3-60.3-16.66-77.57-30.3A16.12,16.12,0,0,1,1223.06,244.47Z" style="fill:#3498db"/><path d="M1528.49,188.11c.31-60,50.61-108.78,111.21-109.08a113.39,113.39,0,0,1,70,23.63,17.91,17.91,0,0,1,3,24.24c-6.06,7.58-17.27,8.79-24.24,3.34-13.33-10.91-30-16.67-48.78-16.67a80.2,80.2,0,0,0-54.54,21.82c-13.64,13.94-22.12,32.12-22.12,52.72a73.68,73.68,0,0,0,22.12,52.73,80.2,80.2,0,0,0,54.54,21.81c18.78,0,35.15-5.75,48.78-16.66,7-5.15,18.18-3.94,24.24,3.33,5.46,7.58,4.25,18.48-3,24.24a113.34,113.34,0,0,1-70,23.64C1579.1,297.2,1528.8,248.41,1528.49,188.11Z" style="fill:#3498db"/></g><g id="Rainbow_Logo" data-name="Rainbow Logo"><path d="M399.3,224.87a16.82,16.82,0,0,1-16.82-16.81c0-96.18-78.25-174.43-174.42-174.43S33.63,111.88,33.63,208.06a16.82,16.82,0,0,1-33.63,0C0,93.33,93.33,0,208.06,0S416.11,93.33,416.11,208.06A16.82,16.82,0,0,1,399.3,224.87Z" style="fill:#e5515f"/><path d="M332,224.87a16.82,16.82,0,0,1-16.82-16.81,107.16,107.16,0,1,0-214.31,0,16.82,16.82,0,0,1-33.63,0c0-77.63,63.16-140.79,140.79-140.79s140.79,63.16,140.79,140.79A16.82,16.82,0,0,1,332,224.87Z" style="fill:#59b281"/><path d="M264.76,224.87a16.82,16.82,0,0,1-16.82-16.81,39.89,39.89,0,1,0-79.77,0,16.82,16.82,0,0,1-33.63,0,73.52,73.52,0,1,1,147,0A16.82,16.82,0,0,1,264.76,224.87Z" style="fill:#3498db"/><rect y="241.69" width="33.63" height="33.63" rx="16.82" style="fill:#e5515f"/><rect x="67.27" y="241.69" width="33.63" height="33.63" rx="16.82" style="fill:#59b281"/><rect x="134.54" y="241.69" width="33.63" height="33.63" rx="16.82" style="fill:#3498db"/><rect x="247.94" y="241.69" width="33.63" height="33.63" rx="16.82" style="fill:#3498db"/><rect x="315.21" y="241.69" width="33.63" height="33.63" rx="16.82" style="fill:#59b281"/><rect x="382.48" y="241.69" width="33.63" height="33.63" rx="16.82" style="fill:#e5515f"/><rect x="67.27" y="292.14" width="33.63" height="33.63" rx="16.82" style="fill:#59b281"/><rect x="134.54" y="292.14" width="33.63" height="33.63" rx="16.82" style="fill:#3498db"/><rect x="315.21" y="292.14" width="33.63" height="33.63" rx="16.82" style="fill:#59b281"/><rect x="67.27" y="342.59" width="33.63" height="33.63" rx="16.82" style="fill:#59b281"/></g></g></g></svg>